<?xml version="1.0" encoding="utf-8"?>
<!-- Generator: Adobe Illustrator 22.1.0, SVG Export Plug-In . SVG Version: 6.00 Build 0)  -->
<svg version="1.1" id="Layer_1" xmlns="http://www.w3.org/2000/svg" xmlns:xlink="http://www.w3.org/1999/xlink" x="0px" y="0px"
	 viewBox="0 0 128 128" style="enable-background:new 0 0 128 128;" xml:space="preserve">
<style type="text/css">
	.st0{fill:#6D6E70;}
</style>
<g>
	<g id="XMLID_1_">
		<g>
			<path class="st0" d="M104.6,65.2c0.7-2.7,1.7-5.4,2.6-7.9c1-2.5,2.1-4.9,3.3-7.1c1.2-2.2,2.6-4.2,3.9-5.9c1.4-1.7,2.9-3.1,4.4-4
				c0.4-0.3,0.7-0.5,1.1-0.7c0.3-0.2,0.7-0.4,1.1-0.5c0.7-0.3,1.3-0.6,2-0.8c0.6-0.2,1.2-0.3,1.6-0.4c0.5,0,0.9-0.1,1.2-0.1
				c0.7,0,1-0.1,1-0.1s-0.3,0.1-1,0.2c-0.3,0.1-0.7,0.2-1.2,0.3c-0.5,0.2-1,0.4-1.5,0.6c-0.6,0.2-1.1,0.6-1.7,1
				c-0.3,0.2-0.6,0.4-1,0.6c-0.3,0.3-0.6,0.5-0.9,0.8c-1.3,1-2.5,2.5-3.7,4.2c-1.1,1.7-2.3,3.7-3.3,5.8c-1,2.2-2,4.5-2.8,7
				c-0.9,2.5-1.6,5.1-2.3,7.8c-0.7,2.7-1.5,5.5-2.5,8.2c-1,2.7-2.3,5.4-3.9,7.9c-1.6,2.5-3.7,4.6-6,6.3c-2.3,1.7-4.8,2.7-7.4,3.5
				c-0.6,0.1-1.2,0.2-1.8,0.4L85,92.3l-0.9,0.1c-1.2,0.1-2.3,0.2-3.4,0.2c-4.4,0-7.9-0.8-10.3-1.3c-2.1-0.5-3.4-0.9-3.7-1
				c0,0,0,0,0.1,0c0.4,0,1.7,0.2,3.8,0.4c2.5,0.2,6,0.4,10.2,0.1c1-0.1,2.1-0.2,3.2-0.4l0.8-0.2l0.8-0.2c0.6-0.2,1.2-0.3,1.7-0.5
				c2.1-0.8,4.3-1.9,6.3-3.4c4-3.1,6.8-7.9,8.6-13.1C103.1,70.5,103.8,67.9,104.6,65.2z"/>
			<path class="st0" d="M118.8,40.2c-1.5,1-2.9,2.4-4.4,4c-1.4,1.7-2.8,3.6-3.9,5.9c-1.2,2.2-2.3,4.5-3.3,7.1
				c-1,2.5-1.9,5.2-2.6,7.9c-0.7,2.7-1.5,5.4-2.5,8c-1.8,5.2-4.7,10-8.6,13.1c-2,1.5-4.2,2.6-6.3,3.4c-0.6,0.2-1.2,0.3-1.7,0.5
				l-0.8,0.2l-0.8,0.2c-1.1,0.2-2.2,0.4-3.2,0.4c-4.2,0.3-7.7,0.1-10.2-0.1c-2-0.2-3.4-0.3-3.8-0.4c0,0,0.3,0,1-0.1
				c0.3,0,0.8-0.1,1.3-0.1c0.5-0.1,1-0.2,1.6-0.4c0.6-0.1,1.3-0.4,2-0.8c0.3-0.2,0.7-0.3,1.1-0.5c0.3-0.2,0.7-0.5,1.1-0.7
				c1.5-1,3-2.4,4.4-4.1c1.4-1.7,2.8-3.6,3.9-5.8c1.2-2.2,2.4-4.6,3.3-7.1c1-2.5,1.9-5.2,2.6-7.9c0.7-2.7,1.5-5.4,2.5-8
				c1.8-5.2,4.7-10,8.6-13.1c2-1.5,4.2-2.6,6.3-3.4c0.6-0.2,1.2-0.3,1.7-0.5l0.8-0.2l0.8-0.2c1.1-0.2,2.1-0.3,3.2-0.4
				c4.2-0.3,7.7-0.1,10.2,0.1c2.1,0.2,3.4,0.3,3.8,0.4c0,0-0.4,0-1,0.1c-0.3,0-0.8,0.1-1.2,0.1c-0.5,0.1-1,0.2-1.6,0.4
				c-0.6,0.1-1.3,0.4-2,0.8c-0.3,0.2-0.7,0.3-1.1,0.5C119.6,39.7,119.2,40,118.8,40.2z"/>
			<path class="st0" d="M112.9,37.2c-1,0.1-2.1,0.2-3.2,0.4l-0.8,0.2l-0.8,0.2c-0.6,0.2-1.2,0.3-1.7,0.5c-2.1,0.8-4.3,1.9-6.3,3.4
				c-4,3.1-6.8,7.9-8.6,13.1c-1,2.6-1.7,5.3-2.5,8c-0.7,2.7-1.7,5.4-2.6,7.9c-0.9,2.5-2.1,4.9-3.3,7.1c-1.2,2.2-2.6,4.1-3.9,5.8
				c-1.4,1.7-2.9,3.1-4.4,4.1c-0.4,0.3-0.7,0.5-1.1,0.7c-0.4,0.2-0.8,0.4-1.1,0.5c-0.7,0.3-1.3,0.6-2,0.8c-0.6,0.2-1.2,0.3-1.6,0.4
				c-0.5,0-0.9,0.1-1.3,0.1c-0.7,0-1,0.1-1,0.1s0.3-0.1,1-0.2c0.3-0.1,0.7-0.2,1.2-0.3c0.5-0.1,0.9-0.4,1.5-0.6
				c0.6-0.2,1.1-0.6,1.7-1c0.3-0.2,0.6-0.4,0.9-0.6c0.3-0.3,0.6-0.5,0.9-0.8c1.3-1,2.5-2.5,3.7-4.2c1.1-1.7,2.3-3.7,3.3-5.8
				c1-2.2,2-4.5,2.8-7c0.9-2.5,1.6-5.1,2.3-7.8c0.7-2.7,1.4-5.5,2.5-8.2c1-2.7,2.3-5.4,3.9-7.9c1.6-2.5,3.7-4.6,6-6.3
				c2.3-1.7,4.8-2.7,7.4-3.5c0.6-0.1,1.2-0.2,1.8-0.4l0.9-0.2l0.9-0.1c1.2-0.1,2.3-0.2,3.4-0.2c4.4,0,7.9,0.8,10.3,1.3
				c2.1,0.5,3.5,0.9,3.7,1c0,0,0,0-0.1,0c-0.4-0.1-1.7-0.2-3.8-0.4C120.6,37.1,117.1,36.9,112.9,37.2z"/>
			<path class="st0" d="M60.7,86.2c4-3.1,6.8-7.9,8.6-13.1c1-2.6,1.7-5.3,2.5-8c0.7-2.7,1.7-5.4,2.6-7.9c1-2.5,2.1-4.9,3.3-7.1
				c1.2-2.2,2.6-4.2,3.9-5.9c1.4-1.7,2.9-3.1,4.4-4c0.4-0.3,0.7-0.5,1.1-0.7c0.4-0.2,0.8-0.4,1.1-0.5c0.7-0.3,1.3-0.6,2-0.8
				c0.6-0.2,1.2-0.3,1.6-0.4c0.5,0,0.9-0.1,1.3-0.1c0.7,0,1-0.1,1-0.1s-0.3,0.1-1,0.2c-0.3,0.1-0.7,0.2-1.2,0.3
				c-0.5,0.2-0.9,0.4-1.5,0.6c-0.6,0.2-1.2,0.6-1.8,1c-0.3,0.2-0.6,0.4-0.9,0.6c-0.3,0.3-0.6,0.5-0.9,0.8c-1.3,1-2.5,2.5-3.7,4.2
				c-1.1,1.7-2.3,3.7-3.3,5.8c-1,2.2-2,4.5-2.8,7c-0.9,2.5-1.6,5.1-2.3,7.8c-0.7,2.7-1.5,5.5-2.5,8.2c-1,2.7-2.3,5.4-3.9,7.9
				c-1.6,2.5-3.7,4.6-6,6.3C60,90,57.5,91,54.9,91.8c-0.6,0.1-1.2,0.2-1.8,0.4l-0.9,0.2l-0.9,0.1c-1.2,0.1-2.3,0.2-3.4,0.2
				c-4.4,0-7.9-0.8-10.3-1.3c-2.1-0.5-3.5-0.9-3.7-1c0,0,0,0,0.1,0c0.4,0,1.7,0.2,3.8,0.4c2.5,0.2,6,0.4,10.2,0.1
				c1-0.1,2.1-0.2,3.2-0.4l0.8-0.2l0.8-0.2c0.6-0.2,1.2-0.3,1.7-0.5C56.5,88.8,58.7,87.7,60.7,86.2z"/>
			<path class="st0" d="M80.1,37.2c4.2-0.3,7.7-0.1,10.2,0.1c2,0.2,3.3,0.3,3.8,0.4c0,0-0.3,0-1,0.1c-0.3,0-0.8,0.1-1.3,0.1
				c-0.5,0.1-1,0.2-1.6,0.4c-0.6,0.1-1.3,0.4-2,0.8c-0.3,0.2-0.7,0.3-1.1,0.5c-0.3,0.2-0.7,0.5-1.1,0.7c-1.5,1-3,2.4-4.4,4
				c-1.4,1.7-2.8,3.6-3.9,5.9c-1.2,2.2-2.4,4.5-3.3,7.1c-1,2.5-1.9,5.2-2.6,7.9c-0.7,2.7-1.5,5.4-2.5,8c-1.8,5.2-4.7,10-8.6,13.1
				c-2,1.5-4.2,2.6-6.3,3.4c-0.6,0.2-1.2,0.3-1.7,0.5l-0.8,0.2L51,90.4c-1.1,0.2-2.2,0.4-3.2,0.4c-4.2,0.3-7.7,0.1-10.2-0.1
				c-2.1-0.2-3.4-0.3-3.8-0.4c0,0,0.4,0,1-0.1c0.3,0,0.8-0.1,1.2-0.1c0.5-0.1,1-0.2,1.6-0.4c0.6-0.1,1.3-0.4,2-0.8
				c0.3-0.2,0.7-0.3,1.1-0.5c0.3-0.2,0.7-0.5,1.1-0.7c1.5-1,2.9-2.4,4.4-4.1c1.4-1.7,2.8-3.6,3.9-5.8c1.2-2.2,2.3-4.6,3.3-7.1
				c1-2.5,1.9-5.2,2.6-7.9c0.7-2.7,1.5-5.4,2.5-8c1.8-5.2,4.7-10,8.6-13.1c2-1.5,4.2-2.6,6.3-3.4c0.6-0.2,1.2-0.3,1.7-0.5l0.8-0.2
				l0.8-0.2C78.1,37.4,79.1,37.3,80.1,37.2z"/>
			<path class="st0" d="M59.7,46c1.6-2.5,3.7-4.6,6-6.3c2.3-1.7,4.8-2.7,7.4-3.5c0.6-0.1,1.2-0.2,1.8-0.4l0.9-0.2l0.9-0.1
				c1.2-0.1,2.3-0.2,3.4-0.2c4.4,0,7.9,0.8,10.3,1.3c2.1,0.5,3.5,0.9,3.7,1c0,0,0,0-0.1,0c-0.4-0.1-1.7-0.2-3.8-0.4
				c-2.5-0.2-6-0.5-10.2-0.1c-1,0.1-2.1,0.2-3.2,0.4l-0.8,0.2L75.3,38c-0.6,0.2-1.2,0.3-1.7,0.5c-2.1,0.8-4.3,1.9-6.3,3.4
				c-4,3.1-6.8,7.9-8.6,13.1c-1,2.6-1.7,5.3-2.5,8c-0.7,2.7-1.7,5.4-2.6,7.9c-1,2.5-2.1,4.9-3.3,7.1c-1.2,2.2-2.6,4.1-3.9,5.8
				c-1.4,1.7-2.9,3.1-4.4,4.1c-0.4,0.3-0.7,0.5-1.1,0.7c-0.3,0.2-0.7,0.4-1.1,0.5c-0.7,0.3-1.3,0.6-2,0.8c-0.6,0.2-1.2,0.3-1.6,0.4
				c-0.5,0-0.9,0.1-1.2,0.1c-0.7,0-1,0.1-1,0.1s0.3-0.1,1-0.2c0.3-0.1,0.7-0.2,1.2-0.3c0.5-0.1,1-0.4,1.5-0.6c0.6-0.2,1.1-0.6,1.7-1
				c0.3-0.2,0.6-0.4,0.9-0.6c0.3-0.3,0.6-0.5,0.9-0.8c1.3-1,2.5-2.5,3.7-4.2c1.1-1.7,2.3-3.7,3.3-5.8c1-2.2,1.9-4.5,2.8-7
				c0.9-2.5,1.6-5.1,2.3-7.8c0.7-2.7,1.5-5.5,2.5-8.2C56.9,51.1,58.1,48.4,59.7,46z"/>
			<path class="st0" d="M15.1,90.8c1-0.1,2.1-0.2,3.2-0.4l0.8-0.2l0.8-0.2c0.6-0.2,1.2-0.3,1.7-0.5c2.1-0.8,4.3-1.9,6.3-3.4
				c4-3.1,6.8-7.9,8.6-13.1c1-2.6,1.7-5.3,2.5-8c0.7-2.7,1.7-5.4,2.6-7.9c1-2.5,2.1-4.9,3.3-7.1c1.2-2.2,2.6-4.2,3.9-5.9
				c1.4-1.7,2.9-3.1,4.4-4c0.4-0.3,0.7-0.5,1.1-0.7c0.3-0.2,0.7-0.4,1.1-0.5c0.7-0.3,1.3-0.6,2-0.8c0.6-0.2,1.2-0.3,1.6-0.4
				c0.5,0,0.9-0.1,1.2-0.1c0.7,0,1-0.1,1-0.1s-0.3,0.1-1,0.2c-0.3,0.1-0.7,0.2-1.2,0.3c-0.4,0.2-0.9,0.4-1.5,0.6
				c-0.6,0.2-1.2,0.6-1.8,1c-0.3,0.2-0.6,0.4-0.9,0.6c-0.3,0.3-0.6,0.5-0.9,0.8c-1.3,1-2.5,2.5-3.7,4.2C49.1,47.1,48,49,47,51.2
				c-1,2.2-1.9,4.5-2.8,7c-0.9,2.5-1.6,5.1-2.3,7.8c-0.7,2.7-1.5,5.5-2.5,8.2c-1,2.7-2.3,5.4-3.9,7.9c-1.6,2.5-3.7,4.6-6,6.3
				c-2.3,1.7-4.8,2.7-7.4,3.5c-0.6,0.1-1.2,0.2-1.8,0.4l-0.9,0.2l-0.9,0.1c-1.2,0.1-2.3,0.2-3.4,0.2c-4.4,0-7.9-0.8-10.3-1.3
				c-2.1-0.5-3.5-0.9-3.7-1c0,0,0,0,0.1,0c0.4,0.1,1.7,0.2,3.8,0.4C7.3,90.9,10.9,91.1,15.1,90.8z"/>
			<path class="st0" d="M57.5,37.3c2,0.2,3.3,0.3,3.8,0.4c0,0-0.3,0-1,0.1c-0.3,0-0.8,0.1-1.2,0.1c-0.5,0.1-1,0.2-1.6,0.4
				c-0.6,0.1-1.3,0.4-2,0.8c-0.3,0.2-0.7,0.3-1.1,0.5c-0.3,0.2-0.7,0.5-1.1,0.7c-1.5,1-2.9,2.4-4.4,4c-1.4,1.7-2.8,3.6-3.9,5.9
				c-1.2,2.2-2.3,4.5-3.3,7.1c-1,2.5-1.9,5.2-2.6,7.9c-0.7,2.7-1.5,5.4-2.5,8c-1.8,5.2-4.7,10-8.6,13.1c-2,1.5-4.2,2.6-6.3,3.4
				c-0.6,0.2-1.2,0.3-1.7,0.5l-0.8,0.2l-0.8,0.2c-1.1,0.2-2.2,0.4-3.2,0.4c-4.2,0.3-7.7,0.1-10.2-0.1c-2-0.2-3.3-0.3-3.8-0.4
				c0,0,0.3,0,1-0.1c0.3,0,0.8-0.1,1.3-0.1c0.5-0.1,1-0.2,1.6-0.4c0.6-0.1,1.3-0.4,2-0.8c0.3-0.2,0.7-0.3,1.1-0.5
				c0.3-0.2,0.7-0.5,1.1-0.7c1.5-1,3-2.4,4.4-4.1c1.3-1.7,2.8-3.6,3.9-5.8c1.2-2.2,2.4-4.6,3.3-7.1c1-2.5,1.9-5.2,2.6-7.9
				c0.8-2.7,1.5-5.4,2.5-8c1.8-5.2,4.6-10,8.6-13.1c2-1.5,4.2-2.6,6.3-3.4c0.6-0.2,1.2-0.3,1.7-0.5l0.8-0.2l0.8-0.2
				c1.1-0.2,2.1-0.3,3.2-0.4C51.5,36.9,55.1,37.1,57.5,37.3z"/>
			<path class="st0" d="M61.3,37.7c-0.4-0.1-1.7-0.2-3.8-0.4c-2.5-0.2-6-0.5-10.2-0.1c-1,0.1-2.1,0.2-3.2,0.4l-0.8,0.2L42.6,38
				c-0.6,0.2-1.2,0.3-1.7,0.5c-2.1,0.8-4.3,1.9-6.3,3.4c-4,3.1-6.8,7.9-8.6,13.1c-1,2.6-1.7,5.3-2.5,8c-0.7,2.7-1.6,5.4-2.6,7.9
				c-0.9,2.5-2.1,4.9-3.3,7.1c-1.2,2.2-2.6,4.1-3.9,5.8c-1.4,1.7-2.9,3.1-4.4,4.1c-0.4,0.3-0.7,0.5-1.1,0.7C7.7,88.7,7.3,88.9,7,89
				c-0.7,0.3-1.3,0.6-2,0.8c-0.6,0.2-1.2,0.3-1.6,0.4c-0.5,0-0.9,0.1-1.3,0.1c-0.7,0-1,0.1-1,0.1s0.3-0.1,1-0.2
				c0.3-0.1,0.7-0.2,1.2-0.3c0.5-0.1,0.9-0.4,1.5-0.6c0.6-0.2,1.2-0.6,1.8-1c0.3-0.2,0.6-0.4,0.9-0.6c0.3-0.3,0.6-0.5,0.9-0.8
				c1.3-1,2.5-2.5,3.7-4.2c1.1-1.7,2.3-3.7,3.3-5.8c1-2.2,2-4.5,2.8-7c0.9-2.5,1.6-5.1,2.3-7.8c0.7-2.7,1.5-5.5,2.5-8.2
				c1-2.7,2.3-5.4,3.9-7.9c1.6-2.5,3.7-4.6,6-6.3c2.3-1.7,4.8-2.7,7.4-3.5c0.6-0.1,1.2-0.2,1.8-0.4l0.9-0.2l0.9-0.1
				c1.2-0.1,2.3-0.2,3.4-0.2c4.4,0,7.9,0.8,10.3,1.3C59.8,37.2,61.1,37.6,61.3,37.7C61.4,37.7,61.3,37.7,61.3,37.7z"/>
		</g>
		<g>
		</g>
	</g>
</g>
</svg>
